<svg xmlns="http://www.w3.org/2000/svg" xmlns:xlink="http://www.w3.org/1999/xlink" width="20.625" height="19.719" viewBox="0 0 20.625 19.719">
  <metadata><?xpacket begin="﻿" id="W5M0MpCehiHzreSzNTczkc9d"?>
<x:xmpmeta xmlns:x="adobe:ns:meta/" x:xmptk="Adobe XMP Core 5.6-c138 79.159824, 2016/09/14-01:09:01        ">
   <rdf:RDF xmlns:rdf="http://www.w3.org/1999/02/22-rdf-syntax-ns#">
      <rdf:Description rdf:about=""/>
   </rdf:RDF>
</x:xmpmeta>
                                                                                                    
                                                                                                    
                                                                                                    
                                                                                                    
                                                                                                    
                                                                                                    
                                                                                                    
                                                                                                    
                                                                                                    
                                                                                                    
                                                                                                    
                                                                                                    
                                                                                                    
                                                                                                    
                                                                                                    
                                                                                                    
                                                                                                    
                                                                                                    
                                                                                                    
                                                                                                    
                           
<?xpacket end="w"?></metadata>
<defs>
    <style>
      .cls-1 {
        fill: #fff;
        fill-rule: evenodd;
        filter: url(#filter);
      }
    </style>
    <filter id="filter" x="907" y="73.031" width="20.625" height="19.719" filterUnits="userSpaceOnUse">
      <feFlood result="flood" flood-color="#373737"/>
      <feComposite result="composite" operator="in" in2="SourceGraphic"/>
      <feBlend result="blend" in2="SourceGraphic"/>
    </filter>
  </defs>
  <path id="Корзина" class="cls-1" d="M927.576,77.46l-1.2,8.912a2.032,2.032,0,0,1-1.882,1.635H913.61a2.026,2.026,0,0,1-1.879-1.635l-1.469-10.287a3.669,3.669,0,0,1-.137-1.055H908a1,1,0,0,1,0-2h4a1,1,0,0,1,1,1,0.99,0.99,0,0,1-.9.979h13.965C927.172,75.01,927.84,76.141,927.576,77.46Zm-13.845,8.518-1.313-9h13.206s-0.031.2-.031,0.2l-1.186,8.788c-0.008.011-.009,0.013,0,0.013H913.731Zm0.514,3.009a1.874,1.874,0,1,1-1.874,1.874A1.874,1.874,0,0,1,914.245,88.987Zm9,0a1.874,1.874,0,1,1-1.875,1.874A1.874,1.874,0,0,1,923.246,88.987Z" transform="translate(-907 -73.031)"/>
</svg>
