<svg xmlns="http://www.w3.org/2000/svg" width="67.813" height="137.469" viewBox="0 0 67.813 137.469">
  <metadata><?xpacket begin="﻿" id="W5M0MpCehiHzreSzNTczkc9d"?>
<x:xmpmeta xmlns:x="adobe:ns:meta/" x:xmptk="Adobe XMP Core 5.6-c138 79.159824, 2016/09/14-01:09:01        ">
   <rdf:RDF xmlns:rdf="http://www.w3.org/1999/02/22-rdf-syntax-ns#">
      <rdf:Description rdf:about=""/>
   </rdf:RDF>
</x:xmpmeta>
                                                                                                    
                                                                                                    
                                                                                                    
                                                                                                    
                                                                                                    
                                                                                                    
                                                                                                    
                                                                                                    
                                                                                                    
                                                                                                    
                                                                                                    
                                                                                                    
                                                                                                    
                                                                                                    
                                                                                                    
                                                                                                    
                                                                                                    
                                                                                                    
                                                                                                    
                                                                                                    
                           
<?xpacket end="w"?></metadata>
<defs>
    <style>
      .cls-1, .cls-2 {
        fill: #fff;
        fill-rule: evenodd;
      }

      .cls-1 {
        opacity: 0.8;
      }
    </style>
  </defs>
  <path id="Твитер" class="cls-1" d="M16.427,0.165A15.692,15.692,0,1,1,.735,15.857,15.692,15.692,0,0,1,16.427.165Zm9.138,10.811a7.3,7.3,0,0,1-2.092.573,3.654,3.654,0,0,0,1.6-2.015,7.282,7.282,0,0,1-2.313.884,3.646,3.646,0,0,0-6.207,3.322A10.341,10.341,0,0,1,9.047,9.934,3.646,3.646,0,0,0,10.175,14.8a3.626,3.626,0,0,1-1.65-.455c0,0.015,0,.03,0,0.046a3.644,3.644,0,0,0,2.922,3.571,3.651,3.651,0,0,1-1.645.062,3.645,3.645,0,0,0,3.4,2.529,7.353,7.353,0,0,1-5.392,1.509,10.358,10.358,0,0,0,15.946-8.727q0-.237-0.011-0.471A7.406,7.406,0,0,0,25.565,10.976Z" transform="translate(-0.188 -0.156)"/>
  <path id="Твитер_copy" data-name="Твитер copy" class="cls-2" d="M52.427,0.165A15.692,15.692,0,1,1,36.736,15.857,15.692,15.692,0,0,1,52.427.165Zm9.138,10.811a7.3,7.3,0,0,1-2.092.573,3.654,3.654,0,0,0,1.6-2.015,7.282,7.282,0,0,1-2.313.884,3.646,3.646,0,0,0-6.207,3.322,10.341,10.341,0,0,1-7.507-3.806A3.646,3.646,0,0,0,46.175,14.8a3.626,3.626,0,0,1-1.65-.455c0,0.015,0,.03,0,0.046a3.644,3.644,0,0,0,2.922,3.571,3.652,3.652,0,0,1-1.645.062,3.645,3.645,0,0,0,3.4,2.529,7.353,7.353,0,0,1-5.392,1.509,10.358,10.358,0,0,0,15.946-8.727q0-.237-0.011-0.471A7.406,7.406,0,0,0,61.565,10.976Z" transform="translate(-0.188 -0.156)"/>
  <path id="Инста" class="cls-1" d="M15.865,35.228A15.692,15.692,0,1,1,.173,50.919,15.692,15.692,0,0,1,15.865,35.228Zm6.272,23.61a1.745,1.745,0,0,0,1.745-1.745V44.782a1.745,1.745,0,0,0-1.745-1.745H9.809a1.745,1.745,0,0,0-1.745,1.745V57.093a1.745,1.745,0,0,0,1.745,1.745H22.136Zm-1.375-9.1a4.921,4.921,0,1,1-9.529,0H9.853v6.786a0.611,0.611,0,0,0,.611.611H21.529a0.611,0.611,0,0,0,.611-0.611V49.737S21.644,49.739,20.761,49.737ZM16,48.132a2.847,2.847,0,1,1,0,5.677A2.838,2.838,0,0,1,16,48.132Zm3.7-3.316H21.56a0.611,0.611,0,0,1,.611.611v1.864a0.611,0.611,0,0,1-.611.611H19.7a0.611,0.611,0,0,1-.611-0.611V45.427A0.611,0.611,0,0,1,19.7,44.816Z" transform="translate(-0.188 -0.156)"/>
  <path id="Инста_copy" data-name="Инста copy" class="cls-2" d="M51.865,35.228A15.692,15.692,0,1,1,36.173,50.919,15.692,15.692,0,0,1,51.865,35.228Zm6.272,23.61a1.745,1.745,0,0,0,1.745-1.745V44.782a1.745,1.745,0,0,0-1.745-1.745H45.809a1.745,1.745,0,0,0-1.745,1.745V57.093a1.745,1.745,0,0,0,1.745,1.745H58.136Zm-1.375-9.1a4.921,4.921,0,1,1-9.529,0h-1.38v6.786a0.611,0.611,0,0,0,.611.611H57.529a0.611,0.611,0,0,0,.611-0.611V49.737S57.644,49.739,56.761,49.737ZM52,48.132a2.847,2.847,0,1,1,0,5.677A2.838,2.838,0,0,1,52,48.132Zm3.7-3.316H57.56a0.611,0.611,0,0,1,.611.611v1.864a0.611,0.611,0,0,1-.611.611H55.7a0.611,0.611,0,0,1-.611-0.611V45.427A0.611,0.611,0,0,1,55.7,44.816Z" transform="translate(-0.188 -0.156)"/>
  <path id="ФБ" class="cls-1" d="M15.865,70.228A15.692,15.692,0,1,1,.173,85.919,15.692,15.692,0,0,1,15.865,70.228Zm0.774,24.99V85.926h2.742l0.285-3.089H16.638l0-1.856c0-.894.084-1.256,1.367-1.256h1.764V76.3H16.982c-3.294,0-4.082,1.546-4.082,4.342v2.2H11.011v3.089H12.9v9.291h3.739Z" transform="translate(-0.188 -0.156)"/>
  <path id="ФБ_copy" data-name="ФБ copy" class="cls-2" d="M51.865,70.228A15.692,15.692,0,1,1,36.173,85.919,15.692,15.692,0,0,1,51.865,70.228Zm0.774,24.99V85.926h2.742l0.285-3.089H52.638l0.005-1.856c0-.894.084-1.256,1.367-1.256h1.764V76.3H52.982c-3.294,0-4.082,1.546-4.082,4.342v2.2H47.011v3.089H48.9v9.291h3.739Z" transform="translate(-0.188 -0.156)"/>
  <path id="ВК" class="cls-1" d="M15.865,106.228A15.692,15.692,0,1,1,.173,121.919,15.691,15.691,0,0,1,15.865,106.228Zm5.968,18.252a3.116,3.116,0,0,0-.758-2.2,3.7,3.7,0,0,0-2.016-1.082v-0.072a2.937,2.937,0,0,0,1.371-1.144,3.191,3.191,0,0,0,.5-1.77,3.106,3.106,0,0,0-.362-1.518,2.635,2.635,0,0,0-1.091-1.051,4.3,4.3,0,0,0-1.446-.476,16.218,16.218,0,0,0-2.269-.116h-4.8v13.6H16.4a8.838,8.838,0,0,0,2.332-.256,4.8,4.8,0,0,0,1.686-.857,3.637,3.637,0,0,0,1.032-1.268,3.941,3.941,0,0,0,.384-1.784h0ZM17.46,118.9a1.54,1.54,0,0,0-.168-0.677,1.014,1.014,0,0,0-.527-0.5,2.137,2.137,0,0,0-.8-0.162c-0.308-.009-0.767-0.012-1.374-0.012H14.355v2.877h0.43c0.583,0,.994-0.006,1.229-0.019a1.981,1.981,0,0,0,.726-0.19,1.11,1.11,0,0,0,.564-0.529,1.891,1.891,0,0,0,.156-0.786h0Zm0.857,5.522a1.648,1.648,0,0,0-.255-0.984,1.54,1.54,0,0,0-.767-0.539,2.54,2.54,0,0,0-.854-0.134c-0.362-.01-0.848-0.013-1.456-0.013h-0.63v3.4h0.184q1.332,0,1.842-.019a2.883,2.883,0,0,0,1.041-.246,1.359,1.359,0,0,0,.68-0.589A1.783,1.783,0,0,0,18.316,124.417Z" transform="translate(-0.188 -0.156)"/>
  <path id="ВК_copy" data-name="ВК copy" class="cls-2" d="M51.865,106.228a15.692,15.692,0,1,1-15.692,15.691A15.691,15.691,0,0,1,51.865,106.228Zm5.968,18.252a3.116,3.116,0,0,0-.758-2.2,3.7,3.7,0,0,0-2.016-1.082v-0.072a2.937,2.937,0,0,0,1.371-1.144,3.191,3.191,0,0,0,.5-1.77,3.106,3.106,0,0,0-.362-1.518,2.635,2.635,0,0,0-1.091-1.051,4.3,4.3,0,0,0-1.446-.476,16.218,16.218,0,0,0-2.269-.116h-4.8v13.6H52.4a8.838,8.838,0,0,0,2.332-.256,4.8,4.8,0,0,0,1.686-.857,3.637,3.637,0,0,0,1.032-1.268,3.941,3.941,0,0,0,.383-1.784h0ZM53.46,118.9a1.54,1.54,0,0,0-.168-0.677,1.014,1.014,0,0,0-.527-0.5,2.137,2.137,0,0,0-.8-0.162c-0.308-.009-0.767-0.012-1.374-0.012H50.355v2.877h0.43c0.583,0,.994-0.006,1.229-0.019a1.981,1.981,0,0,0,.726-0.19,1.11,1.11,0,0,0,.564-0.529,1.891,1.891,0,0,0,.156-0.786h0Zm0.857,5.522a1.648,1.648,0,0,0-.255-0.984,1.54,1.54,0,0,0-.767-0.539,2.54,2.54,0,0,0-.853-0.134c-0.362-.01-0.848-0.013-1.456-0.013h-0.63v3.4h0.184q1.332,0,1.842-.019a2.883,2.883,0,0,0,1.041-.246,1.359,1.359,0,0,0,.68-0.589A1.783,1.783,0,0,0,54.316,124.417Z" transform="translate(-0.188 -0.156)"/>
</svg>
